<svg width="468" height="102" viewBox="0 0 468 102" fill="none" xmlns="http://www.w3.org/2000/svg">
<g clip-path="url(#clip0_2026_45)">
<path d="M2 20H13.5C20.6797 20 26.5 25.8203 26.5 33V71C26.5 78.1797 20.6797 84 13.5 84C6.3203 84 0.5 78.1797 0.5 71V21.5C0.5 20.6716 1.17157 20 2 20Z" fill="white" stroke="white"/>
<rect x="33.5" y="2.5" width="25" height="99" rx="12.5" fill="white" stroke="white"/>
<rect x="65.5" y="20" width="26" height="64" rx="13" fill="white" stroke="white"/>
<path d="M443.794 83.6C436.394 83.6 430.528 81.4666 426.194 77.2C421.861 72.9333 419.528 66.8666 419.194 59C419.128 58.3333 419.094 57.5 419.094 56.5C419.094 55.4333 419.128 54.6 419.194 54C419.461 49 420.594 44.6666 422.594 41C424.661 37.3333 427.494 34.5333 431.094 32.6C434.694 30.6 438.928 29.6 443.794 29.6C449.194 29.6 453.728 30.7333 457.395 33C461.061 35.2 463.828 38.3 465.694 42.3C467.561 46.2333 468.495 50.8 468.495 56V58.1C468.495 58.7666 468.261 59.3333 467.794 59.8C467.328 60.2666 466.728 60.5 465.995 60.5H432.794C432.794 60.5 432.794 60.6 432.794 60.8C432.794 61 432.794 61.1666 432.794 61.3C432.861 63.6333 433.294 65.8 434.094 67.8C434.961 69.7333 436.194 71.3 437.794 72.5C439.461 73.7 441.428 74.3 443.694 74.3C445.561 74.3 447.128 74.0333 448.395 73.5C449.661 72.9 450.695 72.2333 451.495 71.5C452.295 70.7666 452.861 70.1666 453.194 69.7C453.794 68.9 454.261 68.4333 454.595 68.3C454.995 68.1 455.561 68 456.294 68H464.895C465.561 68 466.095 68.2 466.495 68.6C466.961 69 467.161 69.5 467.094 70.1C467.028 71.1666 466.461 72.4666 465.395 74C464.394 75.5333 462.928 77.0333 460.995 78.5C459.061 79.9666 456.628 81.2 453.694 82.2C450.828 83.1333 447.528 83.6 443.794 83.6ZM432.794 52.1H454.895V51.8C454.895 49.2 454.461 46.9333 453.594 45C452.728 43.0666 451.461 41.5333 449.794 40.4C448.128 39.2666 446.128 38.7 443.794 38.7C441.461 38.7 439.461 39.2666 437.794 40.4C436.128 41.5333 434.861 43.0666 433.995 45C433.195 46.9333 432.794 49.2 432.794 51.8V52.1Z" fill="white"/>
<path d="M397.43 82.6C396.763 82.6 396.196 82.3666 395.73 81.9C395.263 81.4333 395.03 80.8666 395.03 80.2V14C395.03 13.3333 395.263 12.7666 395.73 12.3C396.196 11.8333 396.763 11.6 397.43 11.6H405.73C406.396 11.6 406.963 11.8333 407.43 12.3C407.896 12.7666 408.13 13.3333 408.13 14V80.2C408.13 80.8666 407.896 81.4333 407.43 81.9C406.963 82.3666 406.396 82.6 405.73 82.6H397.43Z" fill="white"/>
<path d="M362.402 83.6C358.535 83.6 355.302 82.9333 352.702 81.6C350.168 80.2666 348.068 78.5667 346.402 76.5V80.2C346.402 80.8666 346.168 81.4333 345.702 81.9C345.302 82.3666 344.735 82.6 344.002 82.6H336.102C335.435 82.6 334.868 82.3666 334.402 81.9C333.935 81.4333 333.702 80.8666 333.702 80.2V14C333.702 13.3333 333.935 12.7666 334.402 12.3C334.868 11.8333 335.435 11.6 336.102 11.6H344.602C345.335 11.6 345.902 11.8333 346.302 12.3C346.768 12.7666 347.002 13.3333 347.002 14V36.2C348.668 34.2666 350.735 32.7 353.202 31.5C355.735 30.2333 358.802 29.6 362.402 29.6C365.935 29.6 369.002 30.2 371.602 31.4C374.202 32.6 376.368 34.3 378.102 36.5C379.902 38.6333 381.268 41.1333 382.202 44C383.135 46.8666 383.635 49.9666 383.702 53.3C383.768 54.5 383.802 55.6 383.802 56.6C383.802 57.5333 383.768 58.6 383.702 59.8C383.568 63.2666 383.035 66.4666 382.102 69.4C381.168 72.2666 379.835 74.7666 378.102 76.9C376.368 79.0333 374.202 80.7 371.602 81.9C369.002 83.0333 365.935 83.6 362.402 83.6ZM358.702 72.9C361.568 72.9 363.802 72.3 365.402 71.1C367.002 69.8333 368.135 68.2 368.802 66.2C369.535 64.2 369.968 62 370.102 59.6C370.235 57.6 370.235 55.6 370.102 53.6C369.968 51.2 369.535 49 368.802 47C368.135 45 367.002 43.4 365.402 42.2C363.802 40.9333 361.568 40.3 358.702 40.3C356.035 40.3 353.868 40.9 352.202 42.1C350.535 43.3 349.268 44.8333 348.402 46.7C347.535 48.5 347.068 50.4 347.002 52.4C346.935 53.6 346.902 54.9 346.902 56.3C346.902 57.6333 346.935 58.9 347.002 60.1C347.135 62.1666 347.568 64.2 348.302 66.2C349.102 68.1333 350.335 69.7333 352.002 71C353.735 72.2666 355.968 72.9 358.702 72.9Z" fill="white"/>
<path d="M291.573 83.6C288.106 83.6 284.973 82.9333 282.173 81.6C279.373 80.2 277.139 78.3666 275.473 76.1C273.873 73.7666 273.073 71.1666 273.073 68.3C273.073 63.6333 274.939 59.9333 278.673 57.2C282.473 54.4 287.473 52.5333 293.673 51.6L307.373 49.6V47.5C307.373 44.7 306.673 42.5333 305.273 41C303.873 39.4666 301.473 38.7 298.073 38.7C295.673 38.7 293.706 39.2 292.173 40.2C290.706 41.1333 289.606 42.4 288.873 44C288.339 44.8666 287.573 45.3 286.573 45.3H278.673C277.939 45.3 277.373 45.1 276.973 44.7C276.639 44.3 276.473 43.7666 276.473 43.1C276.539 42.0333 276.973 40.7333 277.773 39.2C278.573 37.6666 279.839 36.2 281.573 34.8C283.306 33.3333 285.539 32.1 288.273 31.1C291.006 30.1 294.306 29.6 298.173 29.6C302.373 29.6 305.906 30.1333 308.773 31.2C311.706 32.2 314.039 33.5666 315.773 35.3C317.506 37.0333 318.773 39.0666 319.573 41.4C320.373 43.7333 320.773 46.2 320.773 48.8V80.2C320.773 80.8666 320.539 81.4333 320.073 81.9C319.606 82.3666 319.039 82.6 318.373 82.6H310.273C309.539 82.6 308.939 82.3666 308.473 81.9C308.073 81.4333 307.873 80.8666 307.873 80.2V76.3C307.006 77.5666 305.839 78.7666 304.373 79.9C302.906 80.9666 301.106 81.8666 298.973 82.6C296.906 83.2666 294.439 83.6 291.573 83.6ZM294.973 74.1C297.306 74.1 299.406 73.6 301.273 72.6C303.206 71.6 304.706 70.0666 305.773 68C306.906 65.8666 307.473 63.2 307.473 60V57.9L297.473 59.5C293.539 60.1 290.606 61.0666 288.673 62.4C286.739 63.7333 285.773 65.3666 285.773 67.3C285.773 68.7666 286.206 70.0333 287.073 71.1C288.006 72.1 289.173 72.8666 290.573 73.4C291.973 73.8666 293.439 74.1 294.973 74.1Z" fill="white"/>
<path d="M257.102 82.6C253.102 82.6 249.735 81.9 247.002 80.5C244.268 79.1 242.235 77.0333 240.902 74.3C239.568 71.5 238.902 68.0333 238.902 63.9V41.2H231.002C230.335 41.2 229.768 40.9666 229.302 40.5C228.835 40.0333 228.602 39.4666 228.602 38.8V33C228.602 32.3333 228.835 31.7666 229.302 31.3C229.768 30.8333 230.335 30.6 231.002 30.6H238.902V14C238.902 13.3333 239.102 12.7666 239.502 12.3C239.968 11.8333 240.568 11.6 241.302 11.6H249.402C250.068 11.6 250.635 11.8333 251.102 12.3C251.568 12.7666 251.802 13.3333 251.802 14V30.6H264.302C264.968 30.6 265.535 30.8333 266.002 31.3C266.468 31.7666 266.702 32.3333 266.702 33V38.8C266.702 39.4666 266.468 40.0333 266.002 40.5C265.535 40.9666 264.968 41.2 264.302 41.2H251.802V62.9C251.802 65.6333 252.268 67.7666 253.202 69.3C254.202 70.8333 255.902 71.6 258.302 71.6H265.202C265.868 71.6 266.435 71.8333 266.902 72.3C267.368 72.7666 267.602 73.3333 267.602 74V80.2C267.602 80.8666 267.368 81.4333 266.902 81.9C266.435 82.3666 265.868 82.6 265.202 82.6H257.102Z" fill="white"/>
<path d="M209.634 82.6C208.968 82.6 208.401 82.3667 207.934 81.9C207.468 81.4333 207.234 80.8667 207.234 80.2V33C207.234 32.3333 207.468 31.7667 207.934 31.3C208.401 30.8333 208.968 30.6 209.634 30.6H217.934C218.668 30.6 219.234 30.8333 219.634 31.3C220.101 31.7667 220.334 32.3333 220.334 33V80.2C220.334 80.8667 220.101 81.4333 219.634 81.9C219.234 82.3667 218.668 82.6 217.934 82.6H209.634ZM209.234 22C208.501 22 207.901 21.8 207.434 21.4C207.034 20.9333 206.834 20.3333 206.834 19.6V12.4C206.834 11.7333 207.034 11.1667 207.434 10.7C207.901 10.2333 208.501 10 209.234 10H218.334C219.068 10 219.668 10.2333 220.134 10.7C220.601 11.1667 220.834 11.7333 220.834 12.4V19.6C220.834 20.3333 220.601 20.9333 220.134 21.4C219.668 21.8 219.068 22 218.334 22H209.234Z" fill="white"/>
<path d="M119.4 82.6C118.733 82.6 118.167 82.3667 117.7 81.9C117.233 81.4333 117 80.8667 117 80.2V33C117 32.3333 117.233 31.7667 117.7 31.3C118.167 30.8333 118.733 30.6 119.4 30.6H127.2C127.867 30.6 128.433 30.8333 128.9 31.3C129.367 31.7667 129.6 32.3333 129.6 33V36.4C131 34.5333 132.867 32.9667 135.2 31.7C137.6 30.3667 140.433 29.6667 143.7 29.6C151.3 29.4667 156.6 32.4333 159.6 38.5C161.133 35.8333 163.333 33.7 166.2 32.1C169.133 30.4333 172.367 29.6 175.9 29.6C179.367 29.6 182.5 30.4 185.3 32C188.167 33.6 190.4 36.0333 192 39.3C193.667 42.5 194.5 46.5667 194.5 51.5V80.2C194.5 80.8667 194.267 81.4333 193.8 81.9C193.333 82.3667 192.767 82.6 192.1 82.6H183.9C183.233 82.6 182.667 82.3667 182.2 81.9C181.733 81.4333 181.5 80.8667 181.5 80.2V52.3C181.5 49.3 181.067 46.9333 180.2 45.2C179.333 43.4 178.167 42.1333 176.7 41.4C175.233 40.6667 173.6 40.3 171.8 40.3C170.333 40.3 168.867 40.6667 167.4 41.4C165.933 42.1333 164.733 43.4 163.8 45.2C162.867 46.9333 162.4 49.3 162.4 52.3V80.2C162.4 80.8667 162.167 81.4333 161.7 81.9C161.233 82.3667 160.667 82.6 160 82.6H151.8C151.067 82.6 150.467 82.3667 150 81.9C149.6 81.4333 149.4 80.8667 149.4 80.2V52.3C149.4 49.3 148.933 46.9333 148 45.2C147.067 43.4 145.867 42.1333 144.4 41.4C142.933 40.6667 141.367 40.3 139.7 40.3C138.167 40.3 136.667 40.7 135.2 41.5C133.733 42.2333 132.533 43.4667 131.6 45.2C130.667 46.9333 130.2 49.3 130.2 52.3V80.2C130.2 80.8667 129.967 81.4333 129.5 81.9C129.033 82.3667 128.467 82.6 127.8 82.6H119.4Z" fill="white"/>
</g>
<defs>
<clipPath id="clip0_2026_45">
<rect width="468" height="102" fill="white"/>
</clipPath>
</defs>
</svg>
